# xmcd CD database file
#
# Track frame offsets:
#	150
#	18900
#	33000
#	53250
#	74400
#	86325
#	100875
#	120075
#	134700
#	152925
#	172125
#	192075
#	209550
#	226650
#	248700
#	272325
#
# Disc length: 3843 seconds
#
# Revision: 1
# Processed by: cddbd v1.5.2PL0 Copyright (c) Steve Scherf et al.
# Submitted via: CDex 1.70beta2
#
DISCID=c80f0110
DTITLE=Lisa Scottoline - Moment of Truth
DYEAR=2000
DGENRE=Audio Book
TTITLE0=Moment of Truth Track-018 Disc 02
TTITLE1=Moment of Truth Track-019 Disc 02
TTITLE2=Moment of Truth Track-020 Disc 02
TTITLE3=Moment of Truth Track-021 Disc 02
TTITLE4=Moment of Truth Track-022 Disc 02
TTITLE5=Moment of Truth Track-023 Disc 02
TTITLE6=Moment of Truth Track-024 Disc 02
TTITLE7=Moment of Truth Track-025 Disc 02
TTITLE8=Moment of Truth Track-026 Disc 02
TTITLE9=Moment of Truth Track-027 Disc 02
TTITLE10=Moment of Truth Track-028 Disc 02
TTITLE11=Moment of Truth Track-029 Disc 02
TTITLE12=Moment of Truth Track-030 Disc 02
TTITLE13=Moment of Truth Track-031 Disc 02
TTITLE14=Moment of Truth Track-032 Disc 02
TTITLE15=Moment of Truth Track-033 Disc 02
EXTD=YEAR: 2000
EXTT0=
EXTT1=
EXTT2=
EXTT3=
EXTT4=
EXTT5=
EXTT6=
EXTT7=
EXTT8=
EXTT9=
EXTT10=
EXTT11=
EXTT12=
EXTT13=
EXTT14=
EXTT15=
PLAYORDER=
